# Blender v2.79 (sub 0) OBJ File: 'untitled1.blend'
# www.blender.org
mtllib untitled1.mtl
o Cube_Cube.007
v 0.637210 -1.400226 1.695096
v -0.971194 -0.452705 0.977293
v 0.434310 -2.809034 0.290072
v -1.174093 -1.861513 -0.427731
v 1.808478 -0.343124 0.466005
v 0.200074 0.604397 -0.251798
v 1.605578 -1.751932 -0.939020
v -0.002825 -0.804411 -1.656823
vn -0.5856 -0.5286 0.6145
vn -0.1014 -0.7044 -0.7025
vn 0.5856 0.5286 -0.6145
vn 0.1014 0.7044 0.7025
vn 0.8042 -0.4738 0.3589
vn -0.8042 0.4738 -0.3589
usemtl None
s off
f 1//1 2//1 4//1 3//1
f 3//2 4//2 8//2 7//2
f 7//3 8//3 6//3 5//3
f 5//4 6//4 2//4 1//4
f 3//5 7//5 5//5 1//5
f 8//6 4//6 2//6 6//6
o Plane.008_Plane.015
v -1.303762 -3.061051 1.792765
v 0.696238 -3.061051 1.792765
v -1.303762 -3.061051 -0.207235
v 0.696238 -3.061051 -0.207235
vn 0.0000 1.0000 0.0000
usemtl None
s off
f 9//7 10//7 12//7 11//7
o Plane.007_Plane.014
v 0.278557 -2.354137 3.254398
v 2.278557 -2.354137 3.254398
v 0.278557 -2.354137 1.254398
v 2.278557 -2.354137 1.254398
vn 0.0000 1.0000 0.0000
usemtl None
s off
f 13//8 14//8 16//8 15//8
o Plane.006_Plane.013
v -1.783121 -1.851849 0.827371
v 0.216879 -1.851849 0.827371
v -1.783121 -1.851849 -1.172629
v 0.216879 -1.851849 -1.172629
vn 0.0000 1.0000 0.0000
usemtl None
s off
f 17//9 18//9 20//9 19//9
o Plane.005_Plane.012
v -0.503223 -1.237947 1.994193
v 1.496777 -1.237947 1.994193
v -0.503223 -1.237947 -0.005807
v 1.496777 -1.237947 -0.005807
vn 0.0000 1.0000 0.0000
usemtl None
s off
f 21//10 22//10 24//10 23//10
o Plane.004_Plane.011
v 0.237966 -0.661250 2.588689
v 2.237966 -0.661250 2.588689
v 0.237966 -0.661250 0.588689
v 2.237966 -0.661250 0.588689
vn 0.0000 1.0000 0.0000
usemtl None
s off
f 25//11 26//11 28//11 27//11
o Plane.003_Plane.010
v -1.934850 0.290853 0.886310
v 0.065150 0.290853 0.886310
v -1.934850 0.290853 -1.113690
v 0.065150 0.290853 -1.113690
vn 0.0000 1.0000 0.0000
usemtl None
s off
f 29//12 30//12 32//12 31//12
o Plane.002_Plane.009
v 1.201170 0.652643 2.769809
v 3.201170 0.652643 2.769809
v 1.201170 0.652643 0.769809
v 3.201170 0.652643 0.769809
vn 0.0000 1.0000 0.0000
usemtl None
s off
f 33//13 34//13 36//13 35//13
o Plane.001_Plane.008
v -1.036361 1.395286 1.095298
v 0.963639 1.395286 1.095298
v -1.036361 1.395286 -0.904702
v 0.963639 1.395286 -0.904702
vn 0.0000 1.0000 0.0000
usemtl None
s off
f 37//14 38//14 40//14 39//14
o Plane_Plane.007
v -0.682808 2.309304 1.019137
v 1.317192 2.309304 1.019137
v -0.682808 2.309304 -0.980863
v 1.317192 2.309304 -0.980863
vn 0.0000 1.0000 0.0000
usemtl None
s off
f 41//15 42//15 44//15 43//15
